<svg id="visual" viewBox="0 0 900 600" width="900" height="600" xmlns="http://www.w3.org/2000/svg" xmlns:xlink="http://www.w3.org/1999/xlink" version="1.1"><rect x="0" y="0" width="900" height="600" fill="#001220"></rect><path d="M0 371L21.5 369.7C43 368.3 86 365.7 128.8 370.2C171.7 374.7 214.3 386.3 257.2 397.7C300 409 343 420 385.8 412.3C428.7 404.7 471.3 378.3 514.2 371C557 363.7 600 375.3 642.8 377.7C685.7 380 728.3 373 771.2 379.3C814 385.7 857 405.3 878.5 415.2L900 425L900 601L878.5 601C857 601 814 601 771.2 601C728.3 601 685.7 601 642.8 601C600 601 557 601 514.2 601C471.3 601 428.7 601 385.8 601C343 601 300 601 257.2 601C214.3 601 171.7 601 128.8 601C86 601 43 601 21.5 601L0 601Z" fill="#fa7268"></path><path d="M0 469L21.5 456.7C43 444.3 86 419.7 128.8 410C171.7 400.3 214.3 405.7 257.2 411C300 416.3 343 421.7 385.8 424.5C428.7 427.3 471.3 427.7 514.2 428.5C557 429.3 600 430.7 642.8 428.7C685.7 426.7 728.3 421.3 771.2 419.8C814 418.3 857 420.7 878.5 421.8L900 423L900 601L878.5 601C857 601 814 601 771.2 601C728.3 601 685.7 601 642.8 601C600 601 557 601 514.2 601C471.3 601 428.7 601 385.8 601C343 601 300 601 257.2 601C214.3 601 171.7 601 128.8 601C86 601 43 601 21.5 601L0 601Z" fill="#ef5f67"></path><path d="M0 439L21.5 439.3C43 439.7 86 440.3 128.8 450.3C171.7 460.3 214.3 479.7 257.2 482.7C300 485.7 343 472.3 385.8 467.8C428.7 463.3 471.3 467.7 514.2 468.2C557 468.7 600 465.3 642.8 470.8C685.7 476.3 728.3 490.7 771.2 495.7C814 500.7 857 496.3 878.5 494.2L900 492L900 601L878.5 601C857 601 814 601 771.2 601C728.3 601 685.7 601 642.8 601C600 601 557 601 514.2 601C471.3 601 428.7 601 385.8 601C343 601 300 601 257.2 601C214.3 601 171.7 601 128.8 601C86 601 43 601 21.5 601L0 601Z" fill="#e34c67"></path><path d="M0 487L21.5 487.8C43 488.7 86 490.3 128.8 496C171.7 501.7 214.3 511.3 257.2 514.5C300 517.7 343 514.3 385.8 514.5C428.7 514.7 471.3 518.3 514.2 523C557 527.7 600 533.3 642.8 528.7C685.7 524 728.3 509 771.2 505.8C814 502.7 857 511.3 878.5 515.7L900 520L900 601L878.5 601C857 601 814 601 771.2 601C728.3 601 685.7 601 642.8 601C600 601 557 601 514.2 601C471.3 601 428.7 601 385.8 601C343 601 300 601 257.2 601C214.3 601 171.7 601 128.8 601C86 601 43 601 21.5 601L0 601Z" fill="#d53867"></path><path d="M0 550L21.5 546C43 542 86 534 128.8 537C171.7 540 214.3 554 257.2 559.7C300 565.3 343 562.7 385.8 556.8C428.7 551 471.3 542 514.2 540C557 538 600 543 642.8 541.8C685.7 540.7 728.3 533.3 771.2 533.2C814 533 857 540 878.5 543.5L900 547L900 601L878.5 601C857 601 814 601 771.2 601C728.3 601 685.7 601 642.8 601C600 601 557 601 514.2 601C471.3 601 428.7 601 385.8 601C343 601 300 601 257.2 601C214.3 601 171.7 601 128.8 601C86 601 43 601 21.5 601L0 601Z" fill="#c62368"></path></svg>